<svg xmlns="http://www.w3.org/2000/svg" xmlns:xlink="http://www.w3.org/1999/xlink" width="1000" zoomAndPan="magnify" viewBox="0 0 750 749.999995" height="1000" preserveAspectRatio="xMidYMid meet" version="1.0"><defs><clipPath id="d6e31a3d8f"><path d="M 374 15.46875 L 405 15.46875 L 405 46 L 374 46 Z M 374 15.46875 " clip-rule="nonzero"/></clipPath><clipPath id="760b397c5b"><path d="M 569 704 L 600 704 L 600 734.71875 L 569 734.71875 Z M 569 704 " clip-rule="nonzero"/></clipPath><clipPath id="6a38861ade"><path d="M 344 15.46875 L 375 15.46875 L 375 46 L 344 46 Z M 344 15.46875 " clip-rule="nonzero"/></clipPath><clipPath id="1c18261c67"><path d="M 150 704 L 181 704 L 181 734.71875 L 150 734.71875 Z M 150 704 " clip-rule="nonzero"/></clipPath></defs><path fill="#fde057" d="M 299.832031 225.378906 L 269.863281 225.378906 L 269.863281 255.351562 L 299.832031 255.351562 L 299.832031 225.378906 " fill-opacity="1" fill-rule="nonzero"/><path fill="#fde057" d="M 329.8125 225.378906 L 299.847656 225.378906 L 299.847656 255.351562 L 329.8125 255.351562 L 329.8125 225.378906 " fill-opacity="1" fill-rule="nonzero"/><path fill="#fbc308" d="M 359.742188 225.378906 L 329.777344 225.378906 L 329.777344 255.351562 L 359.742188 255.351562 L 359.742188 225.378906 " fill-opacity="1" fill-rule="nonzero"/><path fill="#fbc308" d="M 389.671875 225.378906 L 359.707031 225.378906 L 359.707031 255.351562 L 389.671875 255.351562 L 389.671875 225.378906 " fill-opacity="1" fill-rule="nonzero"/><path fill="#fbc308" d="M 419.644531 225.378906 L 389.679688 225.378906 L 389.679688 255.351562 L 419.644531 255.351562 L 419.644531 225.378906 " fill-opacity="1" fill-rule="nonzero"/><path fill="#fbc308" d="M 449.628906 225.378906 L 419.664062 225.378906 L 419.664062 255.351562 L 449.628906 255.351562 L 449.628906 225.378906 " fill-opacity="1" fill-rule="nonzero"/><path fill="#fbc308" d="M 479.660156 225.378906 L 449.691406 225.378906 L 449.691406 255.351562 L 479.660156 255.351562 L 479.660156 225.378906 " fill-opacity="1" fill-rule="nonzero"/><path fill="#fbc308" d="M 90.15625 315.289062 L 60.191406 315.289062 L 60.191406 345.261719 L 90.15625 345.261719 L 90.15625 315.289062 " fill-opacity="1" fill-rule="nonzero"/><path fill="#fbc308" d="M 120.140625 315.289062 L 90.175781 315.289062 L 90.175781 345.261719 L 120.140625 345.261719 L 120.140625 315.289062 " fill-opacity="1" fill-rule="nonzero"/><path fill="#fbc308" d="M 150.070312 315.289062 L 120.101562 315.289062 L 120.101562 345.261719 L 150.070312 345.261719 L 150.070312 315.289062 " fill-opacity="1" fill-rule="nonzero"/><path fill="#fbc308" d="M 179.996094 315.289062 L 150.03125 315.289062 L 150.03125 345.261719 L 179.996094 345.261719 L 179.996094 315.289062 " fill-opacity="1" fill-rule="nonzero"/><path fill="#fbc308" d="M 209.972656 315.289062 L 180.007812 315.289062 L 180.007812 345.261719 L 209.972656 345.261719 L 209.972656 315.289062 " fill-opacity="1" fill-rule="nonzero"/><path fill="#fbc308" d="M 239.953125 315.289062 L 209.988281 315.289062 L 209.988281 345.261719 L 239.953125 345.261719 L 239.953125 315.289062 " fill-opacity="1" fill-rule="nonzero"/><path fill="#fbc308" d="M 269.984375 315.289062 L 240.019531 315.289062 L 240.019531 345.261719 L 269.984375 345.261719 L 269.984375 315.289062 " fill-opacity="1" fill-rule="nonzero"/><path fill="#fbc308" d="M 299.921875 315.289062 L 269.957031 315.289062 L 269.957031 345.261719 L 299.921875 345.261719 L 299.921875 315.289062 " fill-opacity="1" fill-rule="nonzero"/><path fill="#fbc308" d="M 329.898438 315.289062 L 299.929688 315.289062 L 299.929688 345.261719 L 329.898438 345.261719 L 329.898438 315.289062 " fill-opacity="1" fill-rule="nonzero"/><path fill="#fbc308" d="M 359.824219 315.289062 L 329.859375 315.289062 L 329.859375 345.261719 L 359.824219 345.261719 L 359.824219 315.289062 " fill-opacity="1" fill-rule="nonzero"/><path fill="#fbc308" d="M 389.753906 315.289062 L 359.789062 315.289062 L 359.789062 345.261719 L 389.753906 345.261719 L 389.753906 315.289062 " fill-opacity="1" fill-rule="nonzero"/><path fill="#fbc308" d="M 419.738281 315.289062 L 389.773438 315.289062 L 389.773438 345.261719 L 419.738281 345.261719 L 419.738281 315.289062 " fill-opacity="1" fill-rule="nonzero"/><path fill="#fbc308" d="M 449.710938 315.289062 L 419.746094 315.289062 L 419.746094 345.261719 L 449.710938 345.261719 L 449.710938 315.289062 " fill-opacity="1" fill-rule="nonzero"/><path fill="#fbc308" d="M 479.75 315.289062 L 449.785156 315.289062 L 449.785156 345.261719 L 479.75 345.261719 L 479.75 315.289062 " fill-opacity="1" fill-rule="nonzero"/><path fill="#fbc308" d="M 509.457031 315.289062 L 479.492188 315.289062 L 479.492188 345.261719 L 509.457031 345.261719 L 509.457031 315.289062 " fill-opacity="1" fill-rule="nonzero"/><path fill="#f89c0e" d="M 569.359375 315.289062 L 539.394531 315.289062 L 539.394531 345.261719 L 569.359375 345.261719 L 569.359375 315.289062 " fill-opacity="1" fill-rule="nonzero"/><path fill="#f89c0e" d="M 599.289062 315.289062 L 569.324219 315.289062 L 569.324219 345.261719 L 599.289062 345.261719 L 599.289062 315.289062 " fill-opacity="1" fill-rule="nonzero"/><path fill="#f89c0e" d="M 629.273438 315.289062 L 599.308594 315.289062 L 599.308594 345.261719 L 629.273438 345.261719 L 629.273438 315.289062 " fill-opacity="1" fill-rule="nonzero"/><path fill="#f89c0e" d="M 659.246094 315.289062 L 629.292969 315.289062 L 629.292969 345.261719 L 659.246094 345.261719 L 659.246094 315.289062 " fill-opacity="1" fill-rule="nonzero"/><path fill="#fbc308" d="M 120.140625 345.261719 L 90.175781 345.261719 L 90.175781 375.234375 L 120.140625 375.234375 L 120.140625 345.261719 " fill-opacity="1" fill-rule="nonzero"/><path fill="#fbc308" d="M 150.070312 345.261719 L 120.101562 345.261719 L 120.101562 375.234375 L 150.070312 375.234375 L 150.070312 345.261719 " fill-opacity="1" fill-rule="nonzero"/><path fill="#fbc308" d="M 179.996094 345.261719 L 150.03125 345.261719 L 150.03125 375.234375 L 179.996094 375.234375 L 179.996094 345.261719 " fill-opacity="1" fill-rule="nonzero"/><path fill="#fbc308" d="M 209.972656 345.261719 L 180.007812 345.261719 L 180.007812 375.234375 L 209.972656 375.234375 L 209.972656 345.261719 " fill-opacity="1" fill-rule="nonzero"/><path fill="#fbc308" d="M 239.953125 345.261719 L 209.988281 345.261719 L 209.988281 375.234375 L 239.953125 375.234375 L 239.953125 345.261719 " fill-opacity="1" fill-rule="nonzero"/><path fill="#fbc308" d="M 269.984375 345.261719 L 240.019531 345.261719 L 240.019531 375.234375 L 269.984375 375.234375 L 269.984375 345.261719 " fill-opacity="1" fill-rule="nonzero"/><path fill="#fbc308" d="M 299.921875 345.261719 L 269.957031 345.261719 L 269.957031 375.234375 L 299.921875 375.234375 L 299.921875 345.261719 " fill-opacity="1" fill-rule="nonzero"/><path fill="#fbc308" d="M 329.898438 345.261719 L 299.929688 345.261719 L 299.929688 375.234375 L 329.898438 375.234375 L 329.898438 345.261719 " fill-opacity="1" fill-rule="nonzero"/><path fill="#fbc308" d="M 359.824219 345.261719 L 329.859375 345.261719 L 329.859375 375.234375 L 359.824219 375.234375 L 359.824219 345.261719 " fill-opacity="1" fill-rule="nonzero"/><path fill="#fbc308" d="M 389.753906 345.261719 L 359.789062 345.261719 L 359.789062 375.234375 L 389.753906 375.234375 L 389.753906 345.261719 " fill-opacity="1" fill-rule="nonzero"/><path fill="#fbc308" d="M 419.738281 345.261719 L 389.773438 345.261719 L 389.773438 375.234375 L 419.738281 375.234375 L 419.738281 345.261719 " fill-opacity="1" fill-rule="nonzero"/><path fill="#fbc308" d="M 449.710938 345.261719 L 419.746094 345.261719 L 419.746094 375.234375 L 449.710938 375.234375 L 449.710938 345.261719 " fill-opacity="1" fill-rule="nonzero"/><path fill="#fbc308" d="M 479.75 345.261719 L 449.785156 345.261719 L 449.785156 375.234375 L 479.75 375.234375 L 479.75 345.261719 " fill-opacity="1" fill-rule="nonzero"/><path fill="#f89c0e" d="M 539.433594 345.261719 L 509.476562 345.261719 L 509.476562 375.234375 L 539.433594 375.234375 L 539.433594 345.261719 " fill-opacity="1" fill-rule="nonzero"/><path fill="#f89c0e" d="M 569.359375 345.261719 L 539.394531 345.261719 L 539.394531 375.234375 L 569.359375 375.234375 L 569.359375 345.261719 " fill-opacity="1" fill-rule="nonzero"/><path fill="#f89c0e" d="M 599.289062 345.261719 L 569.324219 345.261719 L 569.324219 375.234375 L 599.289062 375.234375 L 599.289062 345.261719 " fill-opacity="1" fill-rule="nonzero"/><path fill="#f89c0e" d="M 629.273438 345.261719 L 599.308594 345.261719 L 599.308594 375.234375 L 629.273438 375.234375 L 629.273438 345.261719 " fill-opacity="1" fill-rule="nonzero"/><path fill="#fbc308" d="M 150.070312 375.09375 L 120.101562 375.09375 L 120.101562 405.070312 L 150.070312 405.070312 L 150.070312 375.09375 " fill-opacity="1" fill-rule="nonzero"/><path fill="#fbc308" d="M 179.996094 375.09375 L 150.03125 375.09375 L 150.03125 405.070312 L 179.996094 405.070312 L 179.996094 375.09375 " fill-opacity="1" fill-rule="nonzero"/><path fill="#fbc308" d="M 209.972656 375.09375 L 180.007812 375.09375 L 180.007812 405.070312 L 209.972656 405.070312 L 209.972656 375.09375 " fill-opacity="1" fill-rule="nonzero"/><path fill="#fbc308" d="M 239.953125 375.09375 L 209.988281 375.09375 L 209.988281 405.070312 L 239.953125 405.070312 L 239.953125 375.09375 " fill-opacity="1" fill-rule="nonzero"/><path fill="#fbc308" d="M 269.984375 375.09375 L 240.019531 375.09375 L 240.019531 405.070312 L 269.984375 405.070312 L 269.984375 375.09375 " fill-opacity="1" fill-rule="nonzero"/><path fill="#fbc308" d="M 299.921875 375.09375 L 269.957031 375.09375 L 269.957031 405.070312 L 299.921875 405.070312 L 299.921875 375.09375 " fill-opacity="1" fill-rule="nonzero"/><path fill="#fbc308" d="M 329.898438 375.09375 L 299.929688 375.09375 L 299.929688 405.070312 L 329.898438 405.070312 L 329.898438 375.09375 " fill-opacity="1" fill-rule="nonzero"/><path fill="#fbc308" d="M 359.824219 375.09375 L 329.859375 375.09375 L 329.859375 405.070312 L 359.824219 405.070312 L 359.824219 375.09375 " fill-opacity="1" fill-rule="nonzero"/><path fill="#fbc308" d="M 389.753906 375.09375 L 359.789062 375.09375 L 359.789062 405.070312 L 389.753906 405.070312 L 389.753906 375.09375 " fill-opacity="1" fill-rule="nonzero"/><path fill="#fbc308" d="M 419.738281 375.09375 L 389.773438 375.09375 L 389.773438 405.070312 L 419.738281 405.070312 L 419.738281 375.09375 " fill-opacity="1" fill-rule="nonzero"/><path fill="#fbc308" d="M 449.710938 375.09375 L 419.746094 375.09375 L 419.746094 405.070312 L 449.710938 405.070312 L 449.710938 375.09375 " fill-opacity="1" fill-rule="nonzero"/><path fill="#f89c0e" d="M 509.457031 375.09375 L 479.492188 375.09375 L 479.492188 405.070312 L 509.457031 405.070312 L 509.457031 375.09375 " fill-opacity="1" fill-rule="nonzero"/><path fill="#f89c0e" d="M 539.433594 375.09375 L 509.476562 375.09375 L 509.476562 405.070312 L 539.433594 405.070312 L 539.433594 375.09375 " fill-opacity="1" fill-rule="nonzero"/><path fill="#f89c0e" d="M 569.359375 375.09375 L 539.394531 375.09375 L 539.394531 405.070312 L 569.359375 405.070312 L 569.359375 375.09375 " fill-opacity="1" fill-rule="nonzero"/><path fill="#f89c0e" d="M 599.289062 375.09375 L 569.324219 375.09375 L 569.324219 405.070312 L 599.289062 405.070312 L 599.289062 375.09375 " fill-opacity="1" fill-rule="nonzero"/><path fill="#fbc308" d="M 179.996094 405.070312 L 150.03125 405.070312 L 150.03125 435.03125 L 179.996094 435.03125 L 179.996094 405.070312 " fill-opacity="1" fill-rule="nonzero"/><path fill="#fbc308" d="M 209.972656 405.070312 L 180.007812 405.070312 L 180.007812 435.03125 L 209.972656 435.03125 L 209.972656 405.070312 " fill-opacity="1" fill-rule="nonzero"/><path fill="#fbc308" d="M 239.953125 405.070312 L 209.988281 405.070312 L 209.988281 435.03125 L 239.953125 435.03125 L 239.953125 405.070312 " fill-opacity="1" fill-rule="nonzero"/><path fill="#fbc308" d="M 269.984375 405.070312 L 240.019531 405.070312 L 240.019531 435.03125 L 269.984375 435.03125 L 269.984375 405.070312 " fill-opacity="1" fill-rule="nonzero"/><path fill="#fbc308" d="M 299.921875 405.070312 L 269.957031 405.070312 L 269.957031 435.03125 L 299.921875 435.03125 L 299.921875 405.070312 " fill-opacity="1" fill-rule="nonzero"/><path fill="#fbc308" d="M 329.898438 405.070312 L 299.929688 405.070312 L 299.929688 435.03125 L 329.898438 435.03125 L 329.898438 405.070312 " fill-opacity="1" fill-rule="nonzero"/><path fill="#fbc308" d="M 359.824219 405.070312 L 329.859375 405.070312 L 329.859375 435.03125 L 359.824219 435.03125 L 359.824219 405.070312 " fill-opacity="1" fill-rule="nonzero"/><path fill="#fbc308" d="M 389.753906 405.070312 L 359.789062 405.070312 L 359.789062 435.03125 L 389.753906 435.03125 L 389.753906 405.070312 " fill-opacity="1" fill-rule="nonzero"/><path fill="#fbc308" d="M 419.738281 405.070312 L 389.773438 405.070312 L 389.773438 435.03125 L 419.738281 435.03125 L 419.738281 405.070312 " fill-opacity="1" fill-rule="nonzero"/><path fill="#f89c0e" d="M 479.75 405.070312 L 449.785156 405.070312 L 449.785156 435.03125 L 479.75 435.03125 L 479.75 405.070312 " fill-opacity="1" fill-rule="nonzero"/><path fill="#f89c0e" d="M 509.457031 405.070312 L 479.492188 405.070312 L 479.492188 435.03125 L 509.457031 435.03125 L 509.457031 405.070312 " fill-opacity="1" fill-rule="nonzero"/><path fill="#f89c0e" d="M 539.433594 405.070312 L 509.476562 405.070312 L 509.476562 435.03125 L 539.433594 435.03125 L 539.433594 405.070312 " fill-opacity="1" fill-rule="nonzero"/><path fill="#f89c0e" d="M 569.359375 405.070312 L 539.394531 405.070312 L 539.394531 435.03125 L 569.359375 435.03125 L 569.359375 405.070312 " fill-opacity="1" fill-rule="nonzero"/><path fill="#fbc308" d="M 209.972656 435.03125 L 180.007812 435.03125 L 180.007812 465.003906 L 209.972656 465.003906 L 209.972656 435.03125 " fill-opacity="1" fill-rule="nonzero"/><path fill="#fbc308" d="M 239.953125 435.03125 L 209.988281 435.03125 L 209.988281 465.003906 L 239.953125 465.003906 L 239.953125 435.03125 " fill-opacity="1" fill-rule="nonzero"/><path fill="#fbc308" d="M 269.984375 435.03125 L 240.019531 435.03125 L 240.019531 465.003906 L 269.984375 465.003906 L 269.984375 435.03125 " fill-opacity="1" fill-rule="nonzero"/><path fill="#fbc308" d="M 299.921875 435.03125 L 269.957031 435.03125 L 269.957031 465.003906 L 299.921875 465.003906 L 299.921875 435.03125 " fill-opacity="1" fill-rule="nonzero"/><path fill="#fbc308" d="M 329.898438 435.03125 L 299.929688 435.03125 L 299.929688 465.003906 L 329.898438 465.003906 L 329.898438 435.03125 " fill-opacity="1" fill-rule="nonzero"/><path fill="#fbc308" d="M 359.824219 435.03125 L 329.859375 435.03125 L 329.859375 465.003906 L 359.824219 465.003906 L 359.824219 435.03125 " fill-opacity="1" fill-rule="nonzero"/><path fill="#fbc308" d="M 389.753906 435.03125 L 359.789062 435.03125 L 359.789062 465.003906 L 389.753906 465.003906 L 389.753906 435.03125 " fill-opacity="1" fill-rule="nonzero"/><path fill="#f89c0e" d="M 449.710938 435.03125 L 419.746094 435.03125 L 419.746094 465.003906 L 449.710938 465.003906 L 449.710938 435.03125 " fill-opacity="1" fill-rule="nonzero"/><path fill="#f89c0e" d="M 479.75 435.03125 L 449.785156 435.03125 L 449.785156 465.003906 L 479.75 465.003906 L 479.75 435.03125 " fill-opacity="1" fill-rule="nonzero"/><path fill="#f89c0e" d="M 509.457031 435.03125 L 479.492188 435.03125 L 479.492188 465.003906 L 509.457031 465.003906 L 509.457031 435.03125 " fill-opacity="1" fill-rule="nonzero"/><path fill="#f89c0e" d="M 539.433594 435.03125 L 509.476562 435.03125 L 509.476562 465.003906 L 539.433594 465.003906 L 539.433594 435.03125 " fill-opacity="1" fill-rule="nonzero"/><path fill="#fbc308" d="M 239.953125 465.144531 L 209.988281 465.144531 L 209.988281 495.117188 L 239.953125 495.117188 L 239.953125 465.144531 " fill-opacity="1" fill-rule="nonzero"/><path fill="#fbc308" d="M 269.984375 465.144531 L 240.019531 465.144531 L 240.019531 495.117188 L 269.984375 495.117188 L 269.984375 465.144531 " fill-opacity="1" fill-rule="nonzero"/><path fill="#fbc308" d="M 299.921875 465.144531 L 269.957031 465.144531 L 269.957031 495.117188 L 299.921875 495.117188 L 299.921875 465.144531 " fill-opacity="1" fill-rule="nonzero"/><path fill="#fbc308" d="M 329.898438 465.144531 L 299.929688 465.144531 L 299.929688 495.117188 L 329.898438 495.117188 L 329.898438 465.144531 " fill-opacity="1" fill-rule="nonzero"/><path fill="#fbc308" d="M 359.824219 465.144531 L 329.859375 465.144531 L 329.859375 495.117188 L 359.824219 495.117188 L 359.824219 465.144531 " fill-opacity="1" fill-rule="nonzero"/><path fill="#f89c0e" d="M 419.738281 465.144531 L 389.773438 465.144531 L 389.773438 495.117188 L 419.738281 495.117188 L 419.738281 465.144531 " fill-opacity="1" fill-rule="nonzero"/><path fill="#f89c0e" d="M 449.710938 465.144531 L 419.746094 465.144531 L 419.746094 495.117188 L 449.710938 495.117188 L 449.710938 465.144531 " fill-opacity="1" fill-rule="nonzero"/><path fill="#f89c0e" d="M 479.75 465.144531 L 449.785156 465.144531 L 449.785156 495.117188 L 479.75 495.117188 L 479.75 465.144531 " fill-opacity="1" fill-rule="nonzero"/><path fill="#f89c0e" d="M 509.457031 465.144531 L 479.492188 465.144531 L 479.492188 495.117188 L 509.457031 495.117188 L 509.457031 465.144531 " fill-opacity="1" fill-rule="nonzero"/><path fill="#f89c0e" d="M 539.433594 465.144531 L 509.476562 465.144531 L 509.476562 495.117188 L 539.433594 495.117188 L 539.433594 465.144531 " fill-opacity="1" fill-rule="nonzero"/><path fill="#fbc308" d="M 239.953125 495.265625 L 209.988281 495.265625 L 209.988281 525.226562 L 239.953125 525.226562 L 239.953125 495.265625 " fill-opacity="1" fill-rule="nonzero"/><path fill="#fbc308" d="M 269.984375 495.265625 L 240.019531 495.265625 L 240.019531 525.226562 L 269.984375 525.226562 L 269.984375 495.265625 " fill-opacity="1" fill-rule="nonzero"/><path fill="#fbc308" d="M 299.921875 495.265625 L 269.957031 495.265625 L 269.957031 525.226562 L 299.921875 525.226562 L 299.921875 495.265625 " fill-opacity="1" fill-rule="nonzero"/><path fill="#fbc308" d="M 329.898438 495.265625 L 299.929688 495.265625 L 299.929688 525.226562 L 329.898438 525.226562 L 329.898438 495.265625 " fill-opacity="1" fill-rule="nonzero"/><path fill="#f89c0e" d="M 389.753906 495.265625 L 359.789062 495.265625 L 359.789062 525.226562 L 389.753906 525.226562 L 389.753906 495.265625 " fill-opacity="1" fill-rule="nonzero"/><path fill="#f89c0e" d="M 419.738281 495.265625 L 389.773438 495.265625 L 389.773438 525.226562 L 419.738281 525.226562 L 419.738281 495.265625 " fill-opacity="1" fill-rule="nonzero"/><path fill="#f89c0e" d="M 449.710938 495.265625 L 419.746094 495.265625 L 419.746094 525.226562 L 449.710938 525.226562 L 449.710938 495.265625 " fill-opacity="1" fill-rule="nonzero"/><path fill="#f89c0e" d="M 479.75 495.265625 L 449.785156 495.265625 L 449.785156 525.226562 L 479.75 525.226562 L 479.75 495.265625 " fill-opacity="1" fill-rule="nonzero"/><path fill="#f89c0e" d="M 509.457031 495.265625 L 479.492188 495.265625 L 479.492188 525.226562 L 509.457031 525.226562 L 509.457031 495.265625 " fill-opacity="1" fill-rule="nonzero"/><path fill="#f89c0e" d="M 539.433594 495.265625 L 509.476562 495.265625 L 509.476562 525.226562 L 539.433594 525.226562 L 539.433594 495.265625 " fill-opacity="1" fill-rule="nonzero"/><path fill="#f89c0e" d="M 569.359375 435.03125 L 539.394531 435.03125 L 539.394531 465.003906 L 569.359375 465.003906 L 569.359375 435.03125 " fill-opacity="1" fill-rule="nonzero"/><path fill="#fbc308" d="M 210.109375 525.097656 L 180.144531 525.097656 L 180.144531 555.0625 L 210.109375 555.0625 L 210.109375 525.097656 " fill-opacity="1" fill-rule="nonzero"/><path fill="#fbc308" d="M 240.09375 525.097656 L 210.128906 525.097656 L 210.128906 555.0625 L 240.09375 555.0625 L 240.09375 525.097656 " fill-opacity="1" fill-rule="nonzero"/><path fill="#fbc308" d="M 270.121094 525.097656 L 240.15625 525.097656 L 240.15625 555.0625 L 270.121094 555.0625 L 270.121094 525.097656 " fill-opacity="1" fill-rule="nonzero"/><path fill="#fbc308" d="M 300.058594 525.097656 L 270.09375 525.097656 L 270.09375 555.0625 L 300.058594 555.0625 L 300.058594 525.097656 " fill-opacity="1" fill-rule="nonzero"/><path fill="#f89c0e" d="M 359.964844 525.097656 L 330.007812 525.097656 L 330.007812 555.0625 L 359.964844 555.0625 L 359.964844 525.097656 " fill-opacity="1" fill-rule="nonzero"/><path fill="#f89c0e" d="M 389.890625 525.097656 L 359.925781 525.097656 L 359.925781 555.0625 L 389.890625 555.0625 L 389.890625 525.097656 " fill-opacity="1" fill-rule="nonzero"/><path fill="#f89c0e" d="M 419.875 525.097656 L 389.910156 525.097656 L 389.910156 555.0625 L 419.875 555.0625 L 419.875 525.097656 " fill-opacity="1" fill-rule="nonzero"/><path fill="#f89c0e" d="M 449.851562 525.097656 L 419.894531 525.097656 L 419.894531 555.0625 L 449.851562 555.0625 L 449.851562 525.097656 " fill-opacity="1" fill-rule="nonzero"/><path fill="#f89c0e" d="M 479.886719 525.097656 L 449.921875 525.097656 L 449.921875 555.0625 L 479.886719 555.0625 L 479.886719 525.097656 " fill-opacity="1" fill-rule="nonzero"/><path fill="#f89c0e" d="M 509.597656 525.097656 L 479.628906 525.097656 L 479.628906 555.0625 L 509.597656 555.0625 L 509.597656 525.097656 " fill-opacity="1" fill-rule="nonzero"/><path fill="#f89c0e" d="M 539.570312 525.097656 L 509.613281 525.097656 L 509.613281 555.0625 L 539.570312 555.0625 L 539.570312 525.097656 " fill-opacity="1" fill-rule="nonzero"/><path fill="#f89c0e" d="M 569.5 525.097656 L 539.542969 525.097656 L 539.542969 555.0625 L 569.5 555.0625 L 569.5 525.097656 " fill-opacity="1" fill-rule="nonzero"/><path fill="#fbc308" d="M 210.109375 554.925781 L 180.144531 554.925781 L 180.144531 584.898438 L 210.109375 584.898438 L 210.109375 554.925781 " fill-opacity="1" fill-rule="nonzero"/><path fill="#fbc308" d="M 240.09375 554.925781 L 210.128906 554.925781 L 210.128906 584.898438 L 240.09375 584.898438 L 240.09375 554.925781 " fill-opacity="1" fill-rule="nonzero"/><path fill="#fbc308" d="M 270.121094 554.925781 L 240.15625 554.925781 L 240.15625 584.898438 L 270.121094 584.898438 L 270.121094 554.925781 " fill-opacity="1" fill-rule="nonzero"/><path fill="#f89c0e" d="M 330.035156 554.925781 L 300.078125 554.925781 L 300.078125 584.898438 L 330.035156 584.898438 L 330.035156 554.925781 " fill-opacity="1" fill-rule="nonzero"/><path fill="#f89c0e" d="M 359.964844 554.925781 L 330.007812 554.925781 L 330.007812 584.898438 L 359.964844 584.898438 L 359.964844 554.925781 " fill-opacity="1" fill-rule="nonzero"/><path fill="#f89c0e" d="M 389.890625 554.925781 L 359.925781 554.925781 L 359.925781 584.898438 L 389.890625 584.898438 L 389.890625 554.925781 " fill-opacity="1" fill-rule="nonzero"/><path fill="#f89c0e" d="M 419.875 554.925781 L 389.910156 554.925781 L 389.910156 584.898438 L 419.875 584.898438 L 419.875 554.925781 " fill-opacity="1" fill-rule="nonzero"/><path fill="#f89c0e" d="M 449.851562 554.925781 L 419.894531 554.925781 L 419.894531 584.898438 L 449.851562 584.898438 L 449.851562 554.925781 " fill-opacity="1" fill-rule="nonzero"/><path fill="#f89c0e" d="M 479.886719 554.925781 L 449.921875 554.925781 L 449.921875 584.898438 L 479.886719 584.898438 L 479.886719 554.925781 " fill-opacity="1" fill-rule="nonzero"/><path fill="#f89c0e" d="M 509.597656 554.925781 L 479.628906 554.925781 L 479.628906 584.898438 L 509.597656 584.898438 L 509.597656 554.925781 " fill-opacity="1" fill-rule="nonzero"/><path fill="#f89c0e" d="M 539.570312 554.925781 L 509.613281 554.925781 L 509.613281 584.898438 L 539.570312 584.898438 L 539.570312 554.925781 " fill-opacity="1" fill-rule="nonzero"/><path fill="#f89c0e" d="M 569.5 554.925781 L 539.542969 554.925781 L 539.542969 584.898438 L 569.5 584.898438 L 569.5 554.925781 " fill-opacity="1" fill-rule="nonzero"/><path fill="#fbc308" d="M 210.109375 584.898438 L 180.144531 584.898438 L 180.144531 614.871094 L 210.109375 614.871094 L 210.109375 584.898438 " fill-opacity="1" fill-rule="nonzero"/><path fill="#fbc308" d="M 240.09375 584.898438 L 210.128906 584.898438 L 210.128906 614.871094 L 240.09375 614.871094 L 240.09375 584.898438 " fill-opacity="1" fill-rule="nonzero"/><path fill="#f89c0e" d="M 300.058594 584.898438 L 270.09375 584.898438 L 270.09375 614.871094 L 300.058594 614.871094 L 300.058594 584.898438 " fill-opacity="1" fill-rule="nonzero"/><path fill="#f89c0e" d="M 330.035156 584.898438 L 300.078125 584.898438 L 300.078125 614.871094 L 330.035156 614.871094 L 330.035156 584.898438 " fill-opacity="1" fill-rule="nonzero"/><path fill="#f89c0e" d="M 359.964844 584.898438 L 330.007812 584.898438 L 330.007812 614.871094 L 359.964844 614.871094 L 359.964844 584.898438 " fill-opacity="1" fill-rule="nonzero"/><path fill="#f89c0e" d="M 389.890625 584.898438 L 359.925781 584.898438 L 359.925781 614.871094 L 389.890625 614.871094 L 389.890625 584.898438 " fill-opacity="1" fill-rule="nonzero"/><path fill="#f89c0e" d="M 419.875 584.898438 L 389.910156 584.898438 L 389.910156 614.871094 L 419.875 614.871094 L 419.875 584.898438 " fill-opacity="1" fill-rule="nonzero"/><path fill="#f89c0e" d="M 449.851562 584.898438 L 419.894531 584.898438 L 419.894531 616.398438 L 449.851562 616.398438 L 449.851562 584.898438 " fill-opacity="1" fill-rule="nonzero"/><path fill="#f89c0e" d="M 479.886719 584.898438 L 449.921875 584.898438 L 449.921875 614.871094 L 479.886719 614.871094 L 479.886719 584.898438 " fill-opacity="1" fill-rule="nonzero"/><path fill="#f89c0e" d="M 509.597656 584.898438 L 479.628906 584.898438 L 479.628906 614.871094 L 509.597656 614.871094 L 509.597656 584.898438 " fill-opacity="1" fill-rule="nonzero"/><path fill="#f89c0e" d="M 539.570312 584.898438 L 509.613281 584.898438 L 509.613281 614.871094 L 539.570312 614.871094 L 539.570312 584.898438 " fill-opacity="1" fill-rule="nonzero"/><path fill="#f89c0e" d="M 569.5 584.898438 L 539.542969 584.898438 L 539.542969 614.871094 L 569.5 614.871094 L 569.5 584.898438 " fill-opacity="1" fill-rule="nonzero"/><path fill="#f89c0e" d="M 599.289062 405.070312 L 569.324219 405.070312 L 569.324219 435.03125 L 599.289062 435.03125 L 599.289062 405.070312 " fill-opacity="1" fill-rule="nonzero"/><path fill="#fbc308" d="M 179.996094 615.109375 L 150.03125 615.109375 L 150.03125 645.082031 L 179.996094 645.082031 L 179.996094 615.109375 " fill-opacity="1" fill-rule="nonzero"/><path fill="#fbc308" d="M 209.972656 615.109375 L 180.007812 615.109375 L 180.007812 645.082031 L 209.972656 645.082031 L 209.972656 615.109375 " fill-opacity="1" fill-rule="nonzero"/><path fill="#f89c0e" d="M 269.984375 615.109375 L 240.019531 615.109375 L 240.019531 645.082031 L 269.984375 645.082031 L 269.984375 615.109375 " fill-opacity="1" fill-rule="nonzero"/><path fill="#f89c0e" d="M 299.921875 615.109375 L 269.957031 615.109375 L 269.957031 645.082031 L 299.921875 645.082031 L 299.921875 615.109375 " fill-opacity="1" fill-rule="nonzero"/><path fill="#f89c0e" d="M 329.898438 615.109375 L 299.929688 615.109375 L 299.929688 645.082031 L 329.898438 645.082031 L 329.898438 615.109375 " fill-opacity="1" fill-rule="nonzero"/><path fill="#f89c0e" d="M 479.75 615.109375 L 449.785156 615.109375 L 449.785156 645.082031 L 479.75 645.082031 L 479.75 615.109375 " fill-opacity="1" fill-rule="nonzero"/><path fill="#f89c0e" d="M 509.457031 615.109375 L 479.492188 615.109375 L 479.492188 645.082031 L 509.457031 645.082031 L 509.457031 615.109375 " fill-opacity="1" fill-rule="nonzero"/><path fill="#f89c0e" d="M 539.433594 615.109375 L 509.476562 615.109375 L 509.476562 645.082031 L 539.433594 645.082031 L 539.433594 615.109375 " fill-opacity="1" fill-rule="nonzero"/><path fill="#f89c0e" d="M 569.359375 615.109375 L 539.394531 615.109375 L 539.394531 645.082031 L 569.359375 645.082031 L 569.359375 615.109375 " fill-opacity="1" fill-rule="nonzero"/><path fill="#f89c0e" d="M 599.289062 615.109375 L 569.324219 615.109375 L 569.324219 645.082031 L 599.289062 645.082031 L 599.289062 615.109375 " fill-opacity="1" fill-rule="nonzero"/><path fill="#fbc308" d="M 179.996094 645.082031 L 150.03125 645.082031 L 150.03125 675.046875 L 179.996094 675.046875 L 179.996094 645.082031 " fill-opacity="1" fill-rule="nonzero"/><path fill="#f89c0e" d="M 239.953125 645.082031 L 209.988281 645.082031 L 209.988281 675.046875 L 239.953125 675.046875 L 239.953125 645.082031 " fill-opacity="1" fill-rule="nonzero"/><path fill="#f89c0e" d="M 269.984375 645.082031 L 240.019531 645.082031 L 240.019531 675.046875 L 269.984375 675.046875 L 269.984375 645.082031 " fill-opacity="1" fill-rule="nonzero"/><path fill="#f89c0e" d="M 509.457031 645.082031 L 479.492188 645.082031 L 479.492188 675.046875 L 509.457031 675.046875 L 509.457031 645.082031 " fill-opacity="1" fill-rule="nonzero"/><path fill="#f89c0e" d="M 539.433594 645.082031 L 509.476562 645.082031 L 509.476562 675.046875 L 539.433594 675.046875 L 539.433594 645.082031 " fill-opacity="1" fill-rule="nonzero"/><path fill="#f89c0e" d="M 569.359375 645.082031 L 539.394531 645.082031 L 539.394531 675.046875 L 569.359375 675.046875 L 569.359375 645.082031 " fill-opacity="1" fill-rule="nonzero"/><path fill="#f89c0e" d="M 599.289062 645.082031 L 569.324219 645.082031 L 569.324219 675.046875 L 599.289062 675.046875 L 599.289062 645.082031 " fill-opacity="1" fill-rule="nonzero"/><path fill="#fbc308" d="M 209.972656 674.84375 L 180.007812 674.84375 L 180.007812 704.816406 L 209.972656 704.816406 L 209.972656 674.84375 " fill-opacity="1" fill-rule="nonzero"/><path fill="#f89c0e" d="M 569.359375 674.84375 L 539.394531 674.84375 L 539.394531 704.816406 L 569.359375 704.816406 L 569.359375 674.84375 " fill-opacity="1" fill-rule="nonzero"/><path fill="#f89c0e" d="M 599.289062 674.84375 L 569.324219 674.84375 L 569.324219 704.816406 L 599.289062 704.816406 L 599.289062 674.84375 " fill-opacity="1" fill-rule="nonzero"/><path fill="#f89c0e" d="M 629.273438 375.09375 L 599.308594 375.09375 L 599.308594 405.070312 L 629.273438 405.070312 L 629.273438 375.09375 " fill-opacity="1" fill-rule="nonzero"/><path fill="#f89c0e" d="M 659.246094 345.261719 L 629.292969 345.261719 L 629.292969 375.234375 L 659.246094 375.234375 L 659.246094 345.261719 " fill-opacity="1" fill-rule="nonzero"/><path fill="#f89c0e" d="M 689.285156 315.289062 L 659.320312 315.289062 L 659.320312 345.261719 L 689.285156 345.261719 L 689.285156 315.289062 " fill-opacity="1" fill-rule="nonzero"/><path fill="#fde057" d="M 90.15625 285.324219 L 60.191406 285.324219 L 60.191406 315.289062 L 90.15625 315.289062 L 90.15625 285.324219 " fill-opacity="1" fill-rule="nonzero"/><path fill="#fde057" d="M 60.191406 285.324219 L 30.234375 285.324219 L 30.234375 315.289062 L 60.191406 315.289062 L 60.191406 285.324219 " fill-opacity="1" fill-rule="nonzero"/><path fill="#fde057" d="M 120.140625 285.324219 L 90.175781 285.324219 L 90.175781 315.289062 L 120.140625 315.289062 L 120.140625 285.324219 " fill-opacity="1" fill-rule="nonzero"/><path fill="#fbc308" d="M 150.070312 285.324219 L 120.101562 285.324219 L 120.101562 315.289062 L 150.070312 315.289062 L 150.070312 285.324219 " fill-opacity="1" fill-rule="nonzero"/><path fill="#fde057" d="M 179.996094 285.324219 L 150.03125 285.324219 L 150.03125 315.289062 L 179.996094 315.289062 L 179.996094 285.324219 " fill-opacity="1" fill-rule="nonzero"/><path fill="#fde057" d="M 209.972656 285.324219 L 180.007812 285.324219 L 180.007812 315.289062 L 209.972656 315.289062 L 209.972656 285.324219 " fill-opacity="1" fill-rule="nonzero"/><path fill="#fde057" d="M 239.953125 285.324219 L 209.988281 285.324219 L 209.988281 315.289062 L 239.953125 315.289062 L 239.953125 285.324219 " fill-opacity="1" fill-rule="nonzero"/><path fill="#fde057" d="M 269.984375 285.324219 L 240.019531 285.324219 L 240.019531 315.289062 L 269.984375 315.289062 L 269.984375 285.324219 " fill-opacity="1" fill-rule="nonzero"/><path fill="#fde057" d="M 299.921875 285.324219 L 269.957031 285.324219 L 269.957031 315.289062 L 299.921875 315.289062 L 299.921875 285.324219 " fill-opacity="1" fill-rule="nonzero"/><path fill="#fbc308" d="M 329.898438 285.324219 L 299.929688 285.324219 L 299.929688 315.289062 L 329.898438 315.289062 L 329.898438 285.324219 " fill-opacity="1" fill-rule="nonzero"/><path fill="#fbc308" d="M 359.824219 285.324219 L 329.859375 285.324219 L 329.859375 315.289062 L 359.824219 315.289062 L 359.824219 285.324219 " fill-opacity="1" fill-rule="nonzero"/><path fill="#fbc308" d="M 389.753906 285.324219 L 359.789062 285.324219 L 359.789062 315.289062 L 389.753906 315.289062 L 389.753906 285.324219 " fill-opacity="1" fill-rule="nonzero"/><path fill="#fbc308" d="M 419.738281 285.324219 L 389.773438 285.324219 L 389.773438 315.289062 L 419.738281 315.289062 L 419.738281 285.324219 " fill-opacity="1" fill-rule="nonzero"/><path fill="#fbc308" d="M 449.710938 285.324219 L 419.746094 285.324219 L 419.746094 315.289062 L 449.710938 315.289062 L 449.710938 285.324219 " fill-opacity="1" fill-rule="nonzero"/><path fill="#fbc308" d="M 479.75 285.324219 L 449.785156 285.324219 L 449.785156 315.289062 L 479.75 315.289062 L 479.75 285.324219 " fill-opacity="1" fill-rule="nonzero"/><path fill="#fbc308" d="M 509.457031 285.324219 L 479.492188 285.324219 L 479.492188 315.289062 L 509.457031 315.289062 L 509.457031 285.324219 " fill-opacity="1" fill-rule="nonzero"/><path fill="#fbc308" d="M 539.433594 285.324219 L 509.476562 285.324219 L 509.476562 315.289062 L 539.433594 315.289062 L 539.433594 285.324219 " fill-opacity="1" fill-rule="nonzero"/><path fill="#f89c0e" d="M 599.289062 285.324219 L 569.324219 285.324219 L 569.324219 315.289062 L 599.289062 315.289062 L 599.289062 285.324219 " fill-opacity="1" fill-rule="nonzero"/><path fill="#f89c0e" d="M 629.273438 285.324219 L 599.308594 285.324219 L 599.308594 315.289062 L 629.273438 315.289062 L 629.273438 285.324219 " fill-opacity="1" fill-rule="nonzero"/><path fill="#f89c0e" d="M 659.246094 285.324219 L 629.292969 285.324219 L 629.292969 315.289062 L 659.246094 315.289062 L 659.246094 285.324219 " fill-opacity="1" fill-rule="nonzero"/><path fill="#f89c0e" d="M 689.285156 285.324219 L 659.320312 285.324219 L 659.320312 315.289062 L 689.285156 315.289062 L 689.285156 285.324219 " fill-opacity="1" fill-rule="nonzero"/><path fill="#f89c0e" d="M 719.261719 285.324219 L 689.304688 285.324219 L 689.304688 315.289062 L 719.261719 315.289062 L 719.261719 285.324219 " fill-opacity="1" fill-rule="nonzero"/><path fill="#fde057" d="M 90.15625 255.351562 L 60.191406 255.351562 L 60.191406 285.324219 L 90.15625 285.324219 L 90.15625 255.351562 " fill-opacity="1" fill-rule="nonzero"/><path fill="#fde057" d="M 60.191406 255.351562 L 30.234375 255.351562 L 30.234375 285.324219 L 60.191406 285.324219 L 60.191406 255.351562 " fill-opacity="1" fill-rule="nonzero"/><path fill="#fde057" d="M 120.140625 255.351562 L 90.175781 255.351562 L 90.175781 285.324219 L 120.140625 285.324219 L 120.140625 255.351562 " fill-opacity="1" fill-rule="nonzero"/><path fill="#fde057" d="M 150.070312 255.351562 L 120.101562 255.351562 L 120.101562 285.324219 L 150.070312 285.324219 L 150.070312 255.351562 " fill-opacity="1" fill-rule="nonzero"/><path fill="#fde057" d="M 179.996094 255.351562 L 150.03125 255.351562 L 150.03125 285.324219 L 179.996094 285.324219 L 179.996094 255.351562 " fill-opacity="1" fill-rule="nonzero"/><path fill="#fde057" d="M 209.972656 255.351562 L 180.007812 255.351562 L 180.007812 285.324219 L 209.972656 285.324219 L 209.972656 255.351562 " fill-opacity="1" fill-rule="nonzero"/><path fill="#fde057" d="M 239.953125 255.351562 L 209.988281 255.351562 L 209.988281 285.324219 L 239.953125 285.324219 L 239.953125 255.351562 " fill-opacity="1" fill-rule="nonzero"/><path fill="#fde057" d="M 269.984375 255.351562 L 240.019531 255.351562 L 240.019531 285.324219 L 269.984375 285.324219 L 269.984375 255.351562 " fill-opacity="1" fill-rule="nonzero"/><path fill="#fde057" d="M 299.921875 255.351562 L 269.957031 255.351562 L 269.957031 285.324219 L 299.921875 285.324219 L 299.921875 255.351562 " fill-opacity="1" fill-rule="nonzero"/><path fill="#fde057" d="M 329.898438 255.351562 L 299.929688 255.351562 L 299.929688 285.324219 L 329.898438 285.324219 L 329.898438 255.351562 " fill-opacity="1" fill-rule="nonzero"/><path fill="#fbc308" d="M 359.824219 255.351562 L 329.859375 255.351562 L 329.859375 285.324219 L 359.824219 285.324219 L 359.824219 255.351562 " fill-opacity="1" fill-rule="nonzero"/><path fill="#fbc308" d="M 389.753906 255.351562 L 359.789062 255.351562 L 359.789062 285.324219 L 389.753906 285.324219 L 389.753906 255.351562 " fill-opacity="1" fill-rule="nonzero"/><path fill="#fbc308" d="M 419.738281 255.351562 L 389.773438 255.351562 L 389.773438 285.324219 L 419.738281 285.324219 L 419.738281 255.351562 " fill-opacity="1" fill-rule="nonzero"/><path fill="#fbc308" d="M 449.710938 255.351562 L 419.746094 255.351562 L 419.746094 285.324219 L 449.710938 285.324219 L 449.710938 255.351562 " fill-opacity="1" fill-rule="nonzero"/><path fill="#fbc308" d="M 479.75 255.351562 L 449.785156 255.351562 L 449.785156 285.324219 L 479.75 285.324219 L 479.75 255.351562 " fill-opacity="1" fill-rule="nonzero"/><path fill="#fbc308" d="M 509.457031 255.351562 L 479.492188 255.351562 L 479.492188 285.324219 L 509.457031 285.324219 L 509.457031 255.351562 " fill-opacity="1" fill-rule="nonzero"/><path fill="#fbc308" d="M 539.433594 255.351562 L 509.476562 255.351562 L 509.476562 285.324219 L 539.433594 285.324219 L 539.433594 255.351562 " fill-opacity="1" fill-rule="nonzero"/><path fill="#fbc308" d="M 569.359375 255.351562 L 539.394531 255.351562 L 539.394531 285.324219 L 569.359375 285.324219 L 569.359375 255.351562 " fill-opacity="1" fill-rule="nonzero"/><path fill="#f89c0e" d="M 539.433594 315.289062 L 509.476562 315.289062 L 509.476562 345.261719 L 539.433594 345.261719 L 539.433594 315.289062 " fill-opacity="1" fill-rule="nonzero"/><path fill="#f89c0e" d="M 509.457031 345.261719 L 479.492188 345.261719 L 479.492188 375.234375 L 509.457031 375.234375 L 509.457031 345.261719 " fill-opacity="1" fill-rule="nonzero"/><path fill="#f89c0e" d="M 479.75 375.09375 L 449.785156 375.09375 L 449.785156 405.070312 L 479.75 405.070312 L 479.75 375.09375 " fill-opacity="1" fill-rule="nonzero"/><path fill="#f89c0e" d="M 449.710938 405.070312 L 419.746094 405.070312 L 419.746094 435.03125 L 449.710938 435.03125 L 449.710938 405.070312 " fill-opacity="1" fill-rule="nonzero"/><path fill="#f89c0e" d="M 419.738281 435.03125 L 389.773438 435.03125 L 389.773438 465.003906 L 419.738281 465.003906 L 419.738281 435.03125 " fill-opacity="1" fill-rule="nonzero"/><path fill="#f89c0e" d="M 389.753906 465.144531 L 359.789062 465.144531 L 359.789062 495.117188 L 389.753906 495.117188 L 389.753906 465.144531 " fill-opacity="1" fill-rule="nonzero"/><path fill="#f89c0e" d="M 359.824219 495.265625 L 329.859375 495.265625 L 329.859375 525.226562 L 359.824219 525.226562 L 359.824219 495.265625 " fill-opacity="1" fill-rule="nonzero"/><path fill="#f89c0e" d="M 330.035156 525.097656 L 300.078125 525.097656 L 300.078125 555.0625 L 330.035156 555.0625 L 330.035156 525.097656 " fill-opacity="1" fill-rule="nonzero"/><path fill="#f89c0e" d="M 300.058594 554.925781 L 270.09375 554.925781 L 270.09375 584.898438 L 300.058594 584.898438 L 300.058594 554.925781 " fill-opacity="1" fill-rule="nonzero"/><path fill="#f89c0e" d="M 270.121094 584.898438 L 240.15625 584.898438 L 240.15625 614.871094 L 270.121094 614.871094 L 270.121094 584.898438 " fill-opacity="1" fill-rule="nonzero"/><path fill="#f89c0e" d="M 239.953125 615.109375 L 209.988281 615.109375 L 209.988281 645.082031 L 239.953125 645.082031 L 239.953125 615.109375 " fill-opacity="1" fill-rule="nonzero"/><path fill="#f89c0e" d="M 209.972656 645.082031 L 180.007812 645.082031 L 180.007812 675.046875 L 209.972656 675.046875 L 209.972656 645.082031 " fill-opacity="1" fill-rule="nonzero"/><path fill="#f89c0e" d="M 179.996094 674.84375 L 150.03125 674.84375 L 150.03125 704.816406 L 179.996094 704.816406 L 179.996094 674.84375 " fill-opacity="1" fill-rule="nonzero"/><path fill="#f89c0e" d="M 569.359375 285.324219 L 539.394531 285.324219 L 539.394531 315.289062 L 569.359375 315.289062 L 569.359375 285.324219 " fill-opacity="1" fill-rule="nonzero"/><path fill="#f89c0e" d="M 599.289062 255.351562 L 569.324219 255.351562 L 569.324219 285.324219 L 599.289062 285.324219 L 599.289062 255.351562 " fill-opacity="1" fill-rule="nonzero"/><path fill="#f89c0e" d="M 629.273438 255.351562 L 599.308594 255.351562 L 599.308594 285.324219 L 629.273438 285.324219 L 629.273438 255.351562 " fill-opacity="1" fill-rule="nonzero"/><path fill="#f89c0e" d="M 659.246094 255.351562 L 629.292969 255.351562 L 629.292969 285.324219 L 659.246094 285.324219 L 659.246094 255.351562 " fill-opacity="1" fill-rule="nonzero"/><path fill="#f89c0e" d="M 689.285156 255.351562 L 659.320312 255.351562 L 659.320312 285.324219 L 689.285156 285.324219 L 689.285156 255.351562 " fill-opacity="1" fill-rule="nonzero"/><path fill="#f89c0e" d="M 719.261719 255.351562 L 689.304688 255.351562 L 689.304688 285.324219 L 719.261719 285.324219 L 719.261719 255.351562 " fill-opacity="1" fill-rule="nonzero"/><path fill="#fde057" d="M 299.832031 195.265625 L 269.863281 195.265625 L 269.863281 225.238281 L 299.832031 225.238281 L 299.832031 195.265625 " fill-opacity="1" fill-rule="nonzero"/><path fill="#fde057" d="M 329.8125 195.265625 L 299.847656 195.265625 L 299.847656 225.238281 L 329.8125 225.238281 L 329.8125 195.265625 " fill-opacity="1" fill-rule="nonzero"/><path fill="#fde057" d="M 359.742188 195.265625 L 329.777344 195.265625 L 329.777344 225.238281 L 359.742188 225.238281 L 359.742188 195.265625 " fill-opacity="1" fill-rule="nonzero"/><path fill="#fbc308" d="M 389.671875 195.265625 L 359.707031 195.265625 L 359.707031 225.238281 L 389.671875 225.238281 L 389.671875 195.265625 " fill-opacity="1" fill-rule="nonzero"/><path fill="#fbc308" d="M 419.644531 195.265625 L 389.679688 195.265625 L 389.679688 225.238281 L 419.644531 225.238281 L 419.644531 195.265625 " fill-opacity="1" fill-rule="nonzero"/><path fill="#fbc308" d="M 449.628906 195.265625 L 419.664062 195.265625 L 419.664062 225.238281 L 449.628906 225.238281 L 449.628906 195.265625 " fill-opacity="1" fill-rule="nonzero"/><path fill="#fbc308" d="M 479.660156 195.265625 L 449.691406 195.265625 L 449.691406 225.238281 L 479.660156 225.238281 L 479.660156 195.265625 " fill-opacity="1" fill-rule="nonzero"/><path fill="#fbc308" d="M 299.832031 165.15625 L 269.863281 165.15625 L 269.863281 195.128906 L 299.832031 195.128906 L 299.832031 165.15625 " fill-opacity="1" fill-rule="nonzero"/><path fill="#fde057" d="M 329.8125 165.15625 L 299.847656 165.15625 L 299.847656 195.128906 L 329.8125 195.128906 L 329.8125 165.15625 " fill-opacity="1" fill-rule="nonzero"/><path fill="#fde057" d="M 359.742188 165.15625 L 329.777344 165.15625 L 329.777344 195.128906 L 359.742188 195.128906 L 359.742188 165.15625 " fill-opacity="1" fill-rule="nonzero"/><path fill="#fde057" d="M 389.671875 165.15625 L 359.707031 165.15625 L 359.707031 195.128906 L 389.671875 195.128906 L 389.671875 165.15625 " fill-opacity="1" fill-rule="nonzero"/><path fill="#fbc308" d="M 419.644531 165.15625 L 389.679688 165.15625 L 389.679688 195.128906 L 419.644531 195.128906 L 419.644531 165.15625 " fill-opacity="1" fill-rule="nonzero"/><path fill="#fbc308" d="M 449.628906 165.15625 L 419.664062 165.15625 L 419.664062 195.128906 L 449.628906 195.128906 L 449.628906 165.15625 " fill-opacity="1" fill-rule="nonzero"/><path fill="#fbc308" d="M 479.660156 165.15625 L 449.691406 165.15625 L 449.691406 195.128906 L 479.660156 195.128906 L 479.660156 165.15625 " fill-opacity="1" fill-rule="nonzero"/><path fill="#fde057" d="M 329.8125 135.042969 L 299.847656 135.042969 L 299.847656 165.015625 L 329.8125 165.015625 L 329.8125 135.042969 " fill-opacity="1" fill-rule="nonzero"/><path fill="#fde057" d="M 359.742188 135.042969 L 329.777344 135.042969 L 329.777344 165.015625 L 359.742188 165.015625 L 359.742188 135.042969 " fill-opacity="1" fill-rule="nonzero"/><path fill="#fde057" d="M 389.671875 135.042969 L 359.707031 135.042969 L 359.707031 165.015625 L 389.671875 165.015625 L 389.671875 135.042969 " fill-opacity="1" fill-rule="nonzero"/><path fill="#fbc308" d="M 419.644531 135.042969 L 389.679688 135.042969 L 389.679688 165.015625 L 419.644531 165.015625 L 419.644531 135.042969 " fill-opacity="1" fill-rule="nonzero"/><path fill="#fbc308" d="M 449.628906 135.042969 L 419.664062 135.042969 L 419.664062 165.015625 L 449.628906 165.015625 L 449.628906 135.042969 " fill-opacity="1" fill-rule="nonzero"/><path fill="#fde057" d="M 359.742188 104.933594 L 329.777344 104.933594 L 329.777344 134.90625 L 359.742188 134.90625 L 359.742188 104.933594 " fill-opacity="1" fill-rule="nonzero"/><path fill="#fde057" d="M 389.671875 104.933594 L 359.707031 104.933594 L 359.707031 134.90625 L 389.671875 134.90625 L 389.671875 104.933594 " fill-opacity="1" fill-rule="nonzero"/><path fill="#fde057" d="M 419.644531 104.933594 L 389.679688 104.933594 L 389.679688 134.90625 L 419.644531 134.90625 L 419.644531 104.933594 " fill-opacity="1" fill-rule="nonzero"/><path fill="#fde057" d="M 359.742188 74.820312 L 329.777344 74.820312 L 329.777344 104.796875 L 359.742188 104.796875 L 359.742188 74.820312 " fill-opacity="1" fill-rule="nonzero"/><path fill="#fde057" d="M 389.671875 74.820312 L 359.707031 74.820312 L 359.707031 104.796875 L 389.671875 104.796875 L 389.671875 74.820312 " fill-opacity="1" fill-rule="nonzero"/><path fill="#fde057" d="M 419.644531 74.820312 L 389.679688 74.820312 L 389.679688 104.796875 L 419.644531 104.796875 L 419.644531 74.820312 " fill-opacity="1" fill-rule="nonzero"/><path fill="#fde057" d="M 389.671875 44.710938 L 359.707031 44.710938 L 359.707031 74.683594 L 389.671875 74.683594 L 389.671875 44.710938 " fill-opacity="1" fill-rule="nonzero"/><g clip-path="url(#d6e31a3d8f)"><path fill="#e98410" d="M 374.804688 15.574219 L 404.769531 15.574219 L 404.769531 45.546875 L 374.804688 45.546875 L 374.804688 15.574219 " fill-opacity="1" fill-rule="nonzero"/></g><path fill="#e98410" d="M 389.789062 45.546875 L 419.753906 45.546875 L 419.753906 75.523438 L 389.789062 75.523438 L 389.789062 45.546875 " fill-opacity="1" fill-rule="nonzero"/><path fill="#e98410" d="M 404.769531 75.523438 L 434.734375 75.523438 L 434.734375 105.496094 L 404.769531 105.496094 L 404.769531 75.523438 " fill-opacity="1" fill-rule="nonzero"/><path fill="#e98410" d="M 419.753906 105.496094 L 449.710938 105.496094 L 449.710938 135.46875 L 419.753906 135.46875 L 419.753906 105.496094 " fill-opacity="1" fill-rule="nonzero"/><path fill="#e98410" d="M 434.734375 135.46875 L 464.699219 135.46875 L 464.699219 165.441406 L 434.734375 165.441406 L 434.734375 135.46875 " fill-opacity="1" fill-rule="nonzero"/><path fill="#e98410" d="M 449.710938 165.441406 L 479.675781 165.441406 L 479.675781 195.40625 L 449.710938 195.40625 L 449.710938 165.441406 " fill-opacity="1" fill-rule="nonzero"/><path fill="#e98410" d="M 464.699219 195.40625 L 494.664062 195.40625 L 494.664062 225.378906 L 464.699219 225.378906 L 464.699219 195.40625 " fill-opacity="1" fill-rule="nonzero"/><path fill="#d15814" d="M 539.433594 465.144531 L 569.398438 465.144531 L 569.398438 495.117188 L 539.433594 495.117188 L 539.433594 465.144531 " fill-opacity="1" fill-rule="nonzero"/><path fill="#d15814" d="M 569.398438 435.171875 L 599.363281 435.171875 L 599.363281 465.144531 L 569.398438 465.144531 L 569.398438 435.171875 " fill-opacity="1" fill-rule="nonzero"/><path fill="#d15814" d="M 599.363281 405.199219 L 629.328125 405.199219 L 629.328125 435.171875 L 599.363281 435.171875 L 599.363281 405.199219 " fill-opacity="1" fill-rule="nonzero"/><path fill="#d15814" d="M 629.328125 375.234375 L 659.285156 375.234375 L 659.285156 405.199219 L 629.328125 405.199219 L 629.328125 375.234375 " fill-opacity="1" fill-rule="nonzero"/><path fill="#d15814" d="M 659.285156 345.261719 L 689.25 345.261719 L 689.25 375.234375 L 659.285156 375.234375 L 659.285156 345.261719 " fill-opacity="1" fill-rule="nonzero"/><path fill="#d15814" d="M 689.25 315.289062 L 719.214844 315.289062 L 719.214844 345.261719 L 689.25 345.261719 L 689.25 315.289062 " fill-opacity="1" fill-rule="nonzero"/><path fill="#d15814" d="M 719.214844 285.316406 L 749.179688 285.316406 L 749.179688 315.289062 L 719.214844 315.289062 L 719.214844 285.316406 " fill-opacity="1" fill-rule="nonzero"/><path fill="#d15814" d="M 539.433594 495.117188 L 569.398438 495.117188 L 569.398438 525.089844 L 539.433594 525.089844 L 539.433594 495.117188 " fill-opacity="1" fill-rule="nonzero"/><path fill="#d15814" d="M 569.601562 525.191406 L 599.566406 525.191406 L 599.566406 555.164062 L 569.601562 555.164062 L 569.601562 525.191406 " fill-opacity="1" fill-rule="nonzero"/><path fill="#d15814" d="M 569.601562 555.109375 L 599.566406 555.109375 L 599.566406 585.082031 L 569.601562 585.082031 L 569.601562 555.109375 " fill-opacity="1" fill-rule="nonzero"/><path fill="#d15814" d="M 569.601562 585.101562 L 599.566406 585.101562 L 599.566406 615.074219 L 569.601562 615.074219 L 569.601562 585.101562 " fill-opacity="1" fill-rule="nonzero"/><path fill="#d15814" d="M 599.011719 615.109375 L 628.980469 615.109375 L 628.980469 645.074219 L 599.011719 645.074219 L 599.011719 615.109375 " fill-opacity="1" fill-rule="nonzero"/><path fill="#d15814" d="M 599.011719 645.027344 L 628.980469 645.027344 L 628.980469 675 L 599.011719 675 L 599.011719 645.027344 " fill-opacity="1" fill-rule="nonzero"/><path fill="#d15814" d="M 599.011719 675.019531 L 628.980469 675.019531 L 628.980469 704.992188 L 599.011719 704.992188 L 599.011719 675.019531 " fill-opacity="1" fill-rule="nonzero"/><g clip-path="url(#760b397c5b)"><path fill="#d15814" d="M 569.296875 704.882812 L 599.253906 704.882812 L 599.253906 734.855469 L 569.296875 734.855469 L 569.296875 704.882812 " fill-opacity="1" fill-rule="nonzero"/></g><path fill="#d15814" d="M 539.605469 675.183594 L 569.574219 675.183594 L 569.574219 705.15625 L 539.605469 705.15625 L 539.605469 675.183594 " fill-opacity="1" fill-rule="nonzero"/><path fill="#d15814" d="M 509.640625 660.480469 L 539.605469 660.480469 L 539.605469 690.453125 L 509.640625 690.453125 L 509.640625 660.480469 " fill-opacity="1" fill-rule="nonzero"/><path fill="#d15814" d="M 479.675781 645.773438 L 509.640625 645.773438 L 509.640625 675.746094 L 479.675781 675.746094 L 479.675781 645.773438 " fill-opacity="1" fill-rule="nonzero"/><path fill="#d15814" d="M 449.710938 631.066406 L 479.675781 631.066406 L 479.675781 661.039062 L 449.710938 661.039062 L 449.710938 631.066406 " fill-opacity="1" fill-rule="nonzero"/><path fill="#d15814" d="M 419.753906 616.363281 L 449.710938 616.363281 L 449.710938 646.324219 L 419.753906 646.324219 L 419.753906 616.363281 " fill-opacity="1" fill-rule="nonzero"/><path fill="#d15814" d="M 389.789062 601.648438 L 419.753906 601.648438 L 419.753906 631.621094 L 389.789062 631.621094 L 389.789062 601.648438 " fill-opacity="1" fill-rule="nonzero"/><path fill="#d15814" d="M 359.964844 589.433594 L 389.929688 589.433594 L 389.929688 619.40625 L 359.964844 619.40625 L 359.964844 589.433594 " fill-opacity="1" fill-rule="nonzero"/><path fill="#e98410" d="M 479.675781 225.378906 L 509.640625 225.378906 L 509.640625 255.351562 L 479.675781 255.351562 L 479.675781 225.378906 " fill-opacity="1" fill-rule="nonzero"/><path fill="#e98410" d="M 509.597656 225.378906 L 539.550781 225.378906 L 539.550781 255.351562 L 509.597656 255.351562 L 509.597656 225.378906 " fill-opacity="1" fill-rule="nonzero"/><path fill="#e98410" d="M 539.507812 225.378906 L 569.472656 225.378906 L 569.472656 255.351562 L 539.507812 255.351562 L 539.507812 225.378906 " fill-opacity="1" fill-rule="nonzero"/><path fill="#d15814" d="M 569.417969 225.378906 L 599.382812 225.378906 L 599.382812 255.351562 L 569.417969 255.351562 L 569.417969 225.378906 " fill-opacity="1" fill-rule="nonzero"/><path fill="#d15814" d="M 599.324219 225.378906 L 629.292969 225.378906 L 629.292969 255.351562 L 599.324219 255.351562 L 599.324219 225.378906 " fill-opacity="1" fill-rule="nonzero"/><path fill="#d15814" d="M 629.355469 240.433594 L 659.320312 240.433594 L 659.320312 270.40625 L 629.355469 270.40625 L 629.355469 240.433594 " fill-opacity="1" fill-rule="nonzero"/><path fill="#d15814" d="M 659.292969 240.433594 L 689.25 240.433594 L 689.25 270.40625 L 659.292969 270.40625 L 659.292969 240.433594 " fill-opacity="1" fill-rule="nonzero"/><path fill="#d15814" d="M 689.269531 240.433594 L 719.234375 240.433594 L 719.234375 270.40625 L 689.269531 270.40625 L 689.269531 240.433594 " fill-opacity="1" fill-rule="nonzero"/><path fill="#d15814" d="M 719.195312 240.433594 L 749.160156 240.433594 L 749.160156 270.40625 L 719.195312 270.40625 L 719.195312 240.433594 " fill-opacity="1" fill-rule="nonzero"/><path fill="#d15814" d="M 719.25 270.40625 L 749.214844 270.40625 L 749.214844 285.414062 L 719.25 285.414062 L 719.25 270.40625 " fill-opacity="1" fill-rule="nonzero"/><g clip-path="url(#6a38861ade)"><path fill="#e98410" d="M 374.949219 15.574219 L 344.984375 15.574219 L 344.984375 45.546875 L 374.949219 45.546875 L 374.949219 15.574219 " fill-opacity="1" fill-rule="nonzero"/></g><path fill="#e98410" d="M 359.972656 45.546875 L 330.007812 45.546875 L 330.007812 75.523438 L 359.972656 75.523438 L 359.972656 45.546875 " fill-opacity="1" fill-rule="nonzero"/><path fill="#e98410" d="M 344.984375 75.523438 L 315.019531 75.523438 L 315.019531 105.496094 L 344.984375 105.496094 L 344.984375 75.523438 " fill-opacity="1" fill-rule="nonzero"/><path fill="#e98410" d="M 330.007812 105.496094 L 300.042969 105.496094 L 300.042969 135.46875 L 330.007812 135.46875 L 330.007812 105.496094 " fill-opacity="1" fill-rule="nonzero"/><path fill="#e98410" d="M 315.019531 135.46875 L 285.0625 135.46875 L 285.0625 165.441406 L 315.019531 165.441406 L 315.019531 135.46875 " fill-opacity="1" fill-rule="nonzero"/><path fill="#e98410" d="M 300.042969 165.441406 L 270.078125 165.441406 L 270.078125 195.40625 L 300.042969 195.40625 L 300.042969 165.441406 " fill-opacity="1" fill-rule="nonzero"/><path fill="#e98410" d="M 285.0625 195.40625 L 255.097656 195.40625 L 255.097656 225.378906 L 285.0625 225.378906 L 285.0625 195.40625 " fill-opacity="1" fill-rule="nonzero"/><path fill="#e98410" d="M 210.320312 465.144531 L 180.363281 465.144531 L 180.363281 495.117188 L 210.320312 495.117188 L 210.320312 465.144531 " fill-opacity="1" fill-rule="nonzero"/><path fill="#e98410" d="M 180.363281 435.171875 L 150.398438 435.171875 L 150.398438 465.144531 L 180.363281 465.144531 L 180.363281 435.171875 " fill-opacity="1" fill-rule="nonzero"/><path fill="#e98410" d="M 150.398438 405.199219 L 120.433594 405.199219 L 120.433594 435.171875 L 150.398438 435.171875 L 150.398438 405.199219 " fill-opacity="1" fill-rule="nonzero"/><path fill="#e98410" d="M 120.433594 375.234375 L 90.46875 375.234375 L 90.46875 405.199219 L 120.433594 405.199219 L 120.433594 375.234375 " fill-opacity="1" fill-rule="nonzero"/><path fill="#e98410" d="M 90.46875 345.261719 L 60.503906 345.261719 L 60.503906 375.234375 L 90.46875 375.234375 L 90.46875 345.261719 " fill-opacity="1" fill-rule="nonzero"/><path fill="#e98410" d="M 60.503906 315.289062 L 30.546875 315.289062 L 30.546875 345.261719 L 60.503906 345.261719 L 60.503906 315.289062 " fill-opacity="1" fill-rule="nonzero"/><path fill="#e98410" d="M 30.546875 285.316406 L 0.582031 285.316406 L 0.582031 315.289062 L 30.546875 315.289062 L 30.546875 285.316406 " fill-opacity="1" fill-rule="nonzero"/><path fill="#e98410" d="M 210.320312 495.117188 L 180.363281 495.117188 L 180.363281 525.089844 L 210.320312 525.089844 L 210.320312 495.117188 " fill-opacity="1" fill-rule="nonzero"/><path fill="#e98410" d="M 180.152344 525.191406 L 150.1875 525.191406 L 150.1875 555.164062 L 180.152344 555.164062 L 180.152344 525.191406 " fill-opacity="1" fill-rule="nonzero"/><path fill="#e98410" d="M 180.152344 555.109375 L 150.1875 555.109375 L 150.1875 585.082031 L 180.152344 585.082031 L 180.152344 555.109375 " fill-opacity="1" fill-rule="nonzero"/><path fill="#e98410" d="M 180.152344 585.101562 L 150.1875 585.101562 L 150.1875 615.074219 L 180.152344 615.074219 L 180.152344 585.101562 " fill-opacity="1" fill-rule="nonzero"/><path fill="#e98410" d="M 150.738281 615.109375 L 120.785156 615.109375 L 120.785156 645.074219 L 150.738281 645.074219 L 150.738281 615.109375 " fill-opacity="1" fill-rule="nonzero"/><path fill="#e98410" d="M 150.738281 645.027344 L 120.785156 645.027344 L 120.785156 675 L 150.738281 675 L 150.738281 645.027344 " fill-opacity="1" fill-rule="nonzero"/><path fill="#e98410" d="M 150.738281 675.019531 L 120.785156 675.019531 L 120.785156 704.992188 L 150.738281 704.992188 L 150.738281 675.019531 " fill-opacity="1" fill-rule="nonzero"/><g clip-path="url(#1c18261c67)"><path fill="#d15814" d="M 180.464844 704.882812 L 150.5 704.882812 L 150.5 734.855469 L 180.464844 734.855469 L 180.464844 704.882812 " fill-opacity="1" fill-rule="nonzero"/></g><path fill="#d15814" d="M 210.144531 675.183594 L 180.191406 675.183594 L 180.191406 705.15625 L 210.144531 705.15625 L 210.144531 675.183594 " fill-opacity="1" fill-rule="nonzero"/><path fill="#d15814" d="M 240.113281 660.480469 L 210.144531 660.480469 L 210.144531 690.453125 L 240.113281 690.453125 L 240.113281 660.480469 " fill-opacity="1" fill-rule="nonzero"/><path fill="#d15814" d="M 270.078125 645.773438 L 240.113281 645.773438 L 240.113281 675.746094 L 270.078125 675.746094 L 270.078125 645.773438 " fill-opacity="1" fill-rule="nonzero"/><path fill="#d15814" d="M 300.042969 631.066406 L 270.078125 631.066406 L 270.078125 661.039062 L 300.042969 661.039062 L 300.042969 631.066406 " fill-opacity="1" fill-rule="nonzero"/><path fill="#d15814" d="M 330.007812 616.363281 L 300.042969 616.363281 L 300.042969 646.324219 L 330.007812 646.324219 L 330.007812 616.363281 " fill-opacity="1" fill-rule="nonzero"/><path fill="#d15814" d="M 359.972656 601.648438 L 330.007812 601.648438 L 330.007812 631.621094 L 359.972656 631.621094 L 359.972656 601.648438 " fill-opacity="1" fill-rule="nonzero"/><path fill="#e98410" d="M 270.078125 225.378906 L 240.113281 225.378906 L 240.113281 255.351562 L 270.078125 255.351562 L 270.078125 225.378906 " fill-opacity="1" fill-rule="nonzero"/><path fill="#e98410" d="M 240.167969 225.378906 L 210.203125 225.378906 L 210.203125 255.351562 L 240.167969 255.351562 L 240.167969 225.378906 " fill-opacity="1" fill-rule="nonzero"/><path fill="#e98410" d="M 210.257812 225.378906 L 180.292969 225.378906 L 180.292969 255.351562 L 210.257812 255.351562 L 210.257812 225.378906 " fill-opacity="1" fill-rule="nonzero"/><path fill="#e98410" d="M 180.347656 225.378906 L 150.382812 225.378906 L 150.382812 255.351562 L 180.347656 255.351562 L 180.347656 225.378906 " fill-opacity="1" fill-rule="nonzero"/><path fill="#e98410" d="M 150.4375 225.378906 L 120.472656 225.378906 L 120.472656 255.351562 L 150.4375 255.351562 L 150.4375 225.378906 " fill-opacity="1" fill-rule="nonzero"/><path fill="#e98410" d="M 120.398438 240.433594 L 90.433594 240.433594 L 90.433594 270.40625 L 120.398438 270.40625 L 120.398438 240.433594 " fill-opacity="1" fill-rule="nonzero"/><path fill="#e98410" d="M 90.46875 240.433594 L 60.503906 240.433594 L 60.503906 270.40625 L 90.46875 270.40625 L 90.46875 240.433594 " fill-opacity="1" fill-rule="nonzero"/><path fill="#e98410" d="M 60.484375 240.433594 L 30.519531 240.433594 L 30.519531 270.40625 L 60.484375 270.40625 L 60.484375 240.433594 " fill-opacity="1" fill-rule="nonzero"/><path fill="#e98410" d="M 30.558594 240.433594 L 0.59375 240.433594 L 0.59375 270.40625 L 30.558594 270.40625 L 30.558594 240.433594 " fill-opacity="1" fill-rule="nonzero"/><path fill="#e98410" d="M 30.503906 270.40625 L 0.546875 270.40625 L 0.546875 285.414062 L 30.503906 285.414062 L 30.503906 270.40625 " fill-opacity="1" fill-rule="nonzero"/></svg>